# xmcd
#
# Track frame offsets: 
#        150
#        14514
#        34989
#        54541
#        64439
#        79289
#        97336
#        113668
#        125363
#        144762
#        161384
#        174064
#        192398
#        204498
#        222242
#
# Disc length: 3137 seconds
#
# Revision: 4
# Processed by: cddbd v1.5.2PL0 Copyright (c) Steve Scherf et al.
# Submitted via: ExactAudioCopy v0.99pb5
#
DISCID=d40c3f0f
DTITLE=Various Artist - Classic Country - TL 626-41 - Acoustic
DYEAR=2004
DGENRE=Country
TTITLE0=Soggy Bottom Boys feat. Dan Tyminski - I am a man of constant 
TTITLE0=sorrow
TTITLE1=Rhonda Vincent - My sweet love ain't around
TTITLE2=Dolly Parton - Blue valley songbird
TTITLE3=Claire Lynch - God spoke his name
TTITLE4=Caitlin Cary - Please break my heart
TTITLE5=Gillian Welch and Alison Krauss - I'll fly away
TTITLE6=Nitty Gritty Dirt Band and Maybelle Carter - Wildwood flower
TTITLE7=Ryan Adams - Sweet black magic
TTITLE8=BR5-49 - Hickory wind
TTITLE9=Gram Parsons and Emmylou Harris - Love hurts
TTITLE10=Jimmie Dale Gilmore - Dallas
TTITLE11=Katy Moffatt - Take me back to Texas
TTITLE12=Merle Travis - Nine pound hammer
TTITLE13=Guy Clark - Anyhow, I love you
TTITLE14=Rusty Wier - Silly rhymes
EXTD=
EXTT0=
EXTT1=
EXTT2=
EXTT3=
EXTT4=
EXTT5=
EXTT6=
EXTT7=
EXTT8=
EXTT9=
EXTT10=
EXTT11=
EXTT12=
EXTT13=
EXTT14=
PLAYORDER=
